<?xml version="1.0" standalone="no"?>
<!DOCTYPE svg PUBLIC "-//W3C//DTD SVG 20010904//EN"
 "http://www.w3.org/TR/2001/REC-SVG-20010904/DTD/svg10.dtd">
<svg version="1.0" xmlns="http://www.w3.org/2000/svg"
 width="1280.000000pt" height="1024.000000pt" viewBox="0 0 1280.000000 1024.000000"
 preserveAspectRatio="xMidYMid meet">
<metadata>
Created by potrace 1.15, written by Peter Selinger 2001-2017
</metadata>
<g transform="translate(0.000000,1024.000000) scale(0.100000,-0.100000)"
fill="#f44336" stroke="none">
<path d="M9155 9729 c-77 -4 -169 -13 -205 -19 -198 -33 -318 -56 -405 -76
-38 -9 -81 -18 -95 -21 -14 -3 -81 -21 -150 -40 -555 -154 -1069 -399 -1500
-715 -74 -54 -240 -201 -316 -280 -84 -86 -204 -227 -204 -240 0 -16 -21 -7
-57 26 -74 66 -296 234 -448 337 -178 122 -297 195 -510 314 -82 46 -440 223
-481 239 -52 19 -212 84 -249 101 -38 17 -352 120 -425 139 -30 8 -71 20 -90
25 -59 19 -429 89 -540 103 -138 17 -615 18 -730 0 -820 -124 -1369 -565
-1675 -1347 -63 -160 -145 -436 -160 -538 -3 -21 -12 -71 -19 -110 -37 -183
-40 -227 -40 -492 0 -264 4 -312 40 -492 7 -39 17 -89 20 -110 10 -67 85 -336
114 -408 4 -11 25 -67 45 -125 21 -58 46 -123 55 -145 101 -228 167 -361 273
-555 94 -172 268 -445 431 -675 65 -92 94 -131 202 -271 21 -28 52 -68 69 -90
29 -38 200 -248 220 -270 5 -7 46 -53 90 -104 450 -520 1014 -1088 1496 -1505
31 -27 126 -111 211 -185 160 -141 221 -193 347 -298 42 -34 96 -80 121 -100
86 -73 224 -184 395 -319 33 -27 65 -52 71 -58 7 -5 53 -41 104 -80 51 -38
136 -104 189 -145 85 -67 511 -386 679 -509 34 -25 93 -70 130 -99 94 -73 125
-86 193 -78 95 9 324 121 564 274 184 118 573 386 630 435 6 4 52 39 104 78
113 84 132 98 220 169 38 30 95 75 127 100 32 25 76 61 99 80 40 33 172 142
224 185 14 11 48 40 76 65 28 25 94 81 145 125 232 199 295 257 689 635 316
305 679 686 931 980 234 272 338 402 522 650 76 102 146 196 156 210 57 77
225 332 320 487 327 533 545 1019 673 1498 35 132 45 175 52 220 3 17 18 100
33 185 25 145 27 174 28 450 0 291 -3 329 -39 515 -8 39 -17 86 -20 105 -18
110 -85 324 -148 475 -61 144 -197 375 -290 490 -63 78 -215 231 -294 296
-264 217 -629 384 -1003 458 -58 12 -127 26 -155 31 -134 27 -543 36 -840 19z
m-827 -1636 c-10 -2 -26 -2 -35 0 -10 3 -2 5 17 5 19 0 27 -2 18 -5z m305 0
c-7 -2 -21 -2 -30 0 -10 3 -4 5 12 5 17 0 24 -2 18 -5z m-506 -19 c-3 -3 -12
-4 -19 -1 -8 3 -5 6 6 6 11 1 17 -2 13 -5z m680 0 c-3 -3 -12 -4 -19 -1 -8 3
-5 6 6 6 11 1 17 -2 13 -5z m-3920 -150 c-3 -3 -12 -4 -19 -1 -8 3 -5 6 6 6
11 1 17 -2 13 -5z m248 -84 c3 -6 -1 -7 -9 -4 -18 7 -21 14 -7 14 6 0 13 -4
16 -10z m4386 -77 c13 -16 12 -17 -3 -4 -10 7 -18 15 -18 17 0 8 8 3 21 -13z
m-6161 2 c0 -2 -10 -9 -22 -15 -22 -11 -22 -10 -4 4 21 17 26 19 26 11z m6597
-807 c-3 -8 -6 -5 -6 6 -1 11 2 17 5 13 3 -3 4 -12 1 -19z m-7110 -140 c-3 -8
-6 -5 -6 6 -1 11 2 17 5 13 3 -3 4 -12 1 -19z m7110 -560 c-3 -8 -6 -5 -6 6
-1 11 2 17 5 13 3 -3 4 -12 1 -19z m-7110 -130 c-3 -8 -6 -5 -6 6 -1 11 2 17
5 13 3 -3 4 -12 1 -19z m7030 -210 c-3 -8 -6 -5 -6 6 -1 11 2 17 5 13 3 -3 4
-12 1 -19z m-454 -913 c-3 -9 -8 -14 -10 -11 -3 3 -2 9 2 15 9 16 15 13 8 -4z
m-232 -338 c-10 -9 -11 -8 -5 6 3 10 9 15 12 12 3 -3 0 -11 -7 -18z m-4950
-734 c13 -16 12 -17 -3 -4 -17 13 -22 21 -14 21 2 0 10 -8 17 -17z m60 -60
c13 -16 12 -17 -3 -4 -17 13 -22 21 -14 21 2 0 10 -8 17 -17z m54 -53 c10 -11
16 -20 13 -20 -3 0 -13 9 -23 20 -10 11 -16 20 -13 20 3 0 13 -9 23 -20z m50
-50 c10 -11 16 -20 13 -20 -3 0 -13 9 -23 20 -10 11 -16 20 -13 20 3 0 13 -9
23 -20z m3965 -53 c0 -2 -12 -14 -27 -28 l-28 -24 24 28 c23 25 31 32 31 24z
m-70 -71 c0 -2 -8 -10 -17 -17 -16 -13 -17 -12 -4 4 13 16 21 21 21 13z m-340
-320 c0 -2 -8 -10 -17 -17 -16 -13 -17 -12 -4 4 13 16 21 21 21 13z"/>
</g>
</svg>
